<?xml version="1.0" encoding="UTF-8"?>
<svg xmlns="http://www.w3.org/2000/svg" xmlns:xlink="http://www.w3.org/1999/xlink" width="32px" height="32px" viewBox="0 0 32 32" version="1.1">
<g id="surface1">
<path style=" stroke:none;fill-rule:nonzero;fill:rgb(0%,0%,0%);fill-opacity:1;" d="M 25.308594 19.804688 C 24.492188 21.6875 23.25 23.210938 21.546875 24.339844 C 20.375 25.121094 19.089844 25.621094 17.703125 25.859375 C 16.953125 25.988281 16.199219 26.011719 15.449219 25.972656 C 13.96875 25.890625 12.570312 25.5 11.269531 24.785156 C 9.117188 23.605469 7.566406 21.886719 6.648438 19.605469 C 6.335938 18.824219 6.140625 18.015625 6.046875 17.179688 C 5.96875 16.515625 5.941406 15.851562 5.992188 15.1875 C 6.109375 13.71875 6.5 12.324219 7.234375 11.039062 C 8.507812 8.8125 10.339844 7.25 12.777344 6.417969 C 13.527344 6.164062 14.300781 6.011719 15.089844 5.957031 C 16.761719 5.835938 18.378906 6.050781 19.933594 6.683594 C 21.382812 7.277344 22.625 8.167969 23.65625 9.351562 C 24.757812 10.609375 25.472656 12.066406 25.839844 13.695312 C 26.050781 14.648438 26.121094 15.609375 26.0625 16.578125 C 26 17.6875 25.753906 18.765625 25.308594 19.804688 M 13.386719 19.074219 C 13.542969 19.699219 13.742188 20.3125 14.003906 20.902344 C 14.042969 20.984375 14.082031 21.042969 14.191406 21.058594 C 15 21.167969 15.8125 21.21875 16.628906 21.238281 C 17.0625 21.25 17.492188 21.203125 17.925781 21.210938 C 18.039062 21.210938 18.132812 21.175781 18.226562 21.109375 C 18.863281 20.644531 19.476562 20.15625 20.050781 19.617188 C 20.765625 18.945312 21.414062 18.214844 21.964844 17.398438 C 22.835938 16.113281 23.429688 14.710938 23.757812 13.191406 C 23.851562 12.757812 23.925781 12.316406 23.960938 11.871094 C 23.96875 11.773438 23.9375 11.734375 23.835938 11.722656 C 23.441406 11.671875 23.046875 11.648438 22.65625 11.640625 C 22.0625 11.628906 21.46875 11.625 20.875 11.660156 C 20.230469 11.699219 19.589844 11.753906 18.957031 11.867188 C 17.863281 12.058594 16.769531 12.265625 15.710938 12.601562 C 14.90625 12.859375 14.113281 13.144531 13.339844 13.480469 C 13.28125 13.507812 13.214844 13.523438 13.199219 13.609375 C 13.105469 14.203125 13.03125 14.800781 13.015625 15.402344 C 13 16 13.003906 16.597656 13.066406 17.195312 C 13.132812 17.820312 13.230469 18.4375 13.386719 19.074219 M 7.1875 16.859375 C 7.429688 16.546875 7.679688 16.238281 7.949219 15.949219 C 9.15625 14.652344 10.609375 13.691406 12.1875 12.910156 C 12.289062 12.859375 12.339844 12.796875 12.359375 12.691406 C 12.539062 11.886719 12.78125 11.097656 13.105469 10.335938 C 13.5625 9.269531 14.148438 8.285156 14.917969 7.414062 C 15.035156 7.277344 15.179688 7.15625 15.292969 6.953125 C 14.652344 6.976562 14.074219 7.097656 13.503906 7.269531 C 11.652344 7.820312 10.101562 8.832031 8.898438 10.355469 C 8.152344 11.296875 7.617188 12.347656 7.296875 13.503906 C 6.976562 14.65625 6.851562 15.824219 7.03125 17.027344 C 7.117188 16.988281 7.136719 16.925781 7.1875 16.859375 M 16.765625 11.273438 C 17.308594 11.148438 17.847656 11.027344 18.398438 10.9375 C 18.980469 10.84375 19.566406 10.757812 20.152344 10.703125 C 20.527344 10.667969 20.898438 10.644531 21.273438 10.628906 C 21.757812 10.605469 22.242188 10.597656 22.722656 10.636719 C 22.9375 10.65625 23.152344 10.65625 23.375 10.667969 C 23.339844 10.5625 23.285156 10.492188 23.230469 10.425781 C 22.519531 9.507812 21.664062 8.757812 20.664062 8.171875 C 19.613281 7.5625 18.480469 7.183594 17.277344 7.019531 C 17.152344 7.003906 17.015625 6.933594 16.886719 7.023438 C 16.671875 7.175781 16.464844 7.332031 16.273438 7.507812 C 15.167969 8.519531 14.398438 9.753906 13.855469 11.140625 C 13.707031 11.515625 13.578125 11.898438 13.46875 12.324219 C 14.558594 11.902344 15.640625 11.554688 16.765625 11.273438 M 11.3125 14.519531 C 10.617188 14.945312 9.949219 15.417969 9.339844 15.964844 C 8.632812 16.597656 8.007812 17.296875 7.550781 18.136719 C 7.4375 18.339844 7.445312 18.355469 7.613281 18.503906 C 7.964844 18.8125 8.339844 19.078125 8.738281 19.316406 C 9.875 20 11.109375 20.429688 12.390625 20.730469 C 12.53125 20.765625 12.675781 20.824219 12.863281 20.785156 C 12.492188 19.707031 12.222656 18.613281 12.101562 17.484375 C 11.980469 16.359375 11.992188 15.234375 12.117188 14.078125 C 11.820312 14.210938 11.582031 14.367188 11.3125 14.519531 M 22.5 22.296875 C 22.773438 22.003906 23.050781 21.714844 23.289062 21.363281 C 23.246094 21.363281 23.230469 21.359375 23.21875 21.367188 C 22.324219 21.636719 21.410156 21.832031 20.484375 21.964844 C 19.84375 22.058594 19.199219 22.144531 18.550781 22.167969 C 18.453125 22.167969 18.371094 22.195312 18.289062 22.25 C 17.503906 22.773438 16.679688 23.226562 15.816406 23.605469 C 15.765625 23.628906 15.703125 23.636719 15.675781 23.710938 C 15.988281 24.117188 16.351562 24.480469 16.746094 24.8125 C 16.875 24.917969 17 24.945312 17.148438 24.921875 C 17.519531 24.867188 17.886719 24.808594 18.25 24.71875 C 19.878906 24.300781 21.289062 23.496094 22.5 22.296875 M 25.082031 16.078125 C 25.101562 15.183594 24.976562 14.308594 24.714844 13.449219 C 24.042969 16.539062 22.378906 18.996094 19.953125 21.007812 C 20.011719 21.011719 20.035156 21.019531 20.058594 21.015625 C 20.632812 20.925781 21.207031 20.835938 21.773438 20.707031 C 22.523438 20.539062 23.261719 20.328125 23.984375 20.0625 C 24.0625 20.03125 24.128906 20 24.171875 19.914062 C 24.738281 18.707031 25.066406 17.445312 25.082031 16.078125 M 8.054688 20.0625 C 8.007812 20.039062 7.972656 19.996094 7.898438 20 C 7.9375 20.085938 7.96875 20.167969 8.011719 20.242188 C 8.796875 21.675781 9.898438 22.808594 11.292969 23.65625 C 11.386719 23.71875 11.484375 23.75 11.601562 23.738281 C 12.304688 23.683594 12.996094 23.535156 13.675781 23.34375 C 13.800781 23.304688 13.9375 23.289062 14.058594 23.199219 C 13.8125 22.804688 13.59375 22.402344 13.390625 21.992188 C 13.367188 21.941406 13.320312 21.925781 13.261719 21.917969 C 12.886719 21.863281 12.519531 21.78125 12.148438 21.695312 C 10.707031 21.363281 9.328125 20.871094 8.054688 20.0625 M 13.605469 24.652344 C 14.171875 24.8125 14.746094 24.910156 15.351562 24.953125 C 15.332031 24.914062 15.328125 24.902344 15.316406 24.890625 C 15.171875 24.714844 15.027344 24.539062 14.878906 24.363281 C 14.605469 24.035156 14.730469 24.066406 14.328125 24.195312 C 14.285156 24.207031 14.246094 24.21875 14.207031 24.230469 C 13.871094 24.320312 13.535156 24.414062 13.171875 24.511719 C 13.328125 24.5625 13.457031 24.605469 13.605469 24.652344 M 15.851562 22.199219 C 15.441406 22.207031 15.035156 22.125 14.609375 22.132812 C 14.695312 22.359375 14.835938 22.539062 14.945312 22.738281 C 15.003906 22.835938 15.066406 22.839844 15.164062 22.796875 C 15.480469 22.664062 15.789062 22.511719 16.09375 22.359375 C 16.15625 22.328125 16.226562 22.308594 16.273438 22.242188 C 16.136719 22.226562 16.007812 22.214844 15.851562 22.199219 Z M 15.851562 22.199219 "/>
</g>
</svg>
